REM DIRINDEX 1\2\4,1\2\5,1\2\6,1\3\7,1\3\8
REM DIRNAME folder01,folder02,folder03,folder04,folder05,folder06,folder07,folder08
TITLE ""
FILE "041_Proficiency Test06.mp3" MP3
  TRACK 01 AUDIO
    TITLE "0:"
    INDEX 01 00:00:00
  TRACK 02 AUDIO
    TITLE "6:cjc128_2315"
    INDEX 01 00:00:25
  TRACK 03 AUDIO
    TITLE "0:"
    INDEX 01 00:02:47
  TRACK 04 AUDIO
    TITLE "6:cjc128_2316"
    INDEX 01 00:03:15
  TRACK 05 AUDIO
    TITLE "0:"
    INDEX 01 00:05:28
  TRACK 06 AUDIO
    TITLE "4:cjc128_2317"
    INDEX 01 00:06:04
  TRACK 07 AUDIO
    TITLE "0:"
    INDEX 01 00:10:08
  TRACK 08 AUDIO
    TITLE "5:cjc128_2318"
    INDEX 01 00:14:43
  TRACK 09 AUDIO
    TITLE "0:"
    INDEX 01 00:18:15
  TRACK 10 AUDIO
    TITLE "6:cjc128_2319"
    INDEX 01 00:19:03
  TRACK 11 AUDIO
    TITLE "0:"
    INDEX 01 00:20:65
  TRACK 12 AUDIO
    TITLE "4:cjc128_2320"
    INDEX 01 00:21:49
  TRACK 13 AUDIO
    TITLE "0:"
    INDEX 01 00:25:09
  TRACK 14 AUDIO
    TITLE "5:cjc128_2321"
    INDEX 01 00:28:45
  TRACK 15 AUDIO
    TITLE "0:"
    INDEX 01 00:32:00
  TRACK 16 AUDIO
    TITLE "6:cjc128_2322"
    INDEX 01 00:32:47
  TRACK 17 AUDIO
    TITLE "0:"
    INDEX 01 00:34:53
  TRACK 18 AUDIO
    TITLE "4:cjc128_2323"
    INDEX 01 00:35:33
  TRACK 19 AUDIO
    TITLE "0:"
    INDEX 01 00:38:31
  TRACK 20 AUDIO
    TITLE "5:cjc128_2324"
    INDEX 01 00:41:40
  TRACK 21 AUDIO
    TITLE "0:"
    INDEX 01 00:43:68
  TRACK 22 AUDIO
    TITLE "6:cjc128_2325"
    INDEX 01 00:44:50
  TRACK 23 AUDIO
    TITLE "0:"
    INDEX 01 00:46:58
  TRACK 24 AUDIO
    TITLE "4:cjc128_2326"
    INDEX 01 00:47:30
  TRACK 25 AUDIO
    TITLE "0:"
    INDEX 01 00:50:05
  TRACK 26 AUDIO
    TITLE "5:cjc128_2327"
    INDEX 01 00:53:43
  TRACK 27 AUDIO
    TITLE "0:"
    INDEX 01 00:56:29
  TRACK 28 AUDIO
    TITLE "6:cjc128_2328"
    INDEX 01 00:56:74
  TRACK 29 AUDIO
    TITLE "0:"
    INDEX 01 00:59:14
  TRACK 30 AUDIO
    TITLE "4:cjc128_2329"
    INDEX 01 00:59:71
  TRACK 31 AUDIO
    TITLE "0:"
    INDEX 01 01:03:41
  TRACK 32 AUDIO
    TITLE "5:cjc128_2330"
    INDEX 01 01:07:23
  TRACK 33 AUDIO
    TITLE "0:"
    INDEX 01 01:10:65
  TRACK 34 AUDIO
    TITLE "6:cjc128_2331"
    INDEX 01 01:11:45
  TRACK 35 AUDIO
    TITLE "0:"
    INDEX 01 01:13:53
  TRACK 36 AUDIO
    TITLE "4:cjc128_2332"
    INDEX 01 01:14:31
  TRACK 37 AUDIO
    TITLE "0:"
    INDEX 01 01:18:00
  TRACK 38 AUDIO
    TITLE "5:cjc128_2333"
    INDEX 01 01:21:53
  TRACK 39 AUDIO
    TITLE "0:"
    INDEX 01 01:24:65
  TRACK 40 AUDIO
    TITLE "6:cjc128_2334"
    INDEX 01 01:25:43
  TRACK 41 AUDIO
    TITLE "0:"
    INDEX 01 01:27:61
  TRACK 42 AUDIO
    TITLE "4:cjc128_2335"
    INDEX 01 01:28:35
  TRACK 43 AUDIO
    TITLE "0:"
    INDEX 01 01:31:22
  TRACK 44 AUDIO
    TITLE "5:cjc128_2336"
    INDEX 01 01:34:10
  TRACK 45 AUDIO
    TITLE "0:"
    INDEX 01 01:36:33
  TRACK 46 AUDIO
    TITLE "6:cjc128_2337"
    INDEX 01 01:37:07
  TRACK 47 AUDIO
    TITLE "0:"
    INDEX 01 01:39:21
  TRACK 48 AUDIO
    TITLE "4:cjc128_2338"
    INDEX 01 01:39:72
  TRACK 49 AUDIO
    TITLE "0:"
    INDEX 01 01:43:07
  TRACK 50 AUDIO
    TITLE "5:cjc128_2339"
    INDEX 01 01:46:57
  TRACK 51 AUDIO
    TITLE "0:"
    INDEX 01 01:49:71
